<svg width="200" height="200" viewBox="0 0 200 200" fill="none" xmlns="http://www.w3.org/2000/svg">
<g clip-path="url(#clip0_135_449)">
<path d="M35.4167 1.61203e-05H164.583C169.236 -0.00448106 173.843 0.932018 178.142 2.75592C182.441 4.57981 186.347 7.25531 189.636 10.6293C192.926 14.0032 195.535 18.0094 197.313 22.4186C199.091 26.8277 200.004 31.5533 200 36.3248V163.675C200.004 168.447 199.091 173.172 197.313 177.581C195.535 181.991 192.926 185.997 189.636 189.371C186.347 192.745 182.441 195.42 178.142 197.244C173.843 199.068 169.236 200.004 164.583 200H35.4167C30.7645 200.004 26.1571 199.068 21.8581 197.244C17.5592 195.42 13.6532 192.745 10.3635 189.371C7.07392 185.997 4.46532 181.991 2.68702 177.581C0.908717 173.172 -0.00436903 168.447 1.57173e-05 163.675V36.3248C-0.00436903 31.5533 0.908717 26.8277 2.68702 22.4186C4.46532 18.0094 7.07392 14.0032 10.3635 10.6293C13.6532 7.25531 17.5592 4.57981 21.8581 2.75592C26.1571 0.932018 30.7645 -0.00448106 35.4167 1.61203e-05V1.61203e-05Z" fill="#00589C"/>
<path d="M104.069 162.138C69.844 162.138 42 134.294 42 100.069C42 65.8439 69.844 37.9999 104.069 37.9999C126.153 37.9999 146.75 49.8843 157.82 69.0149L130.958 84.5589C125.418 74.9832 115.114 69.0344 104.069 69.0344C86.9562 69.0344 73.0345 82.9561 73.0345 100.069C73.0345 117.181 86.9562 131.103 104.069 131.103C115.115 131.103 125.419 125.154 130.96 115.577L157.822 131.12C146.752 150.253 126.155 162.138 104.069 162.138Z" fill="white"/>
</g>
<defs>
<clipPath id="clip0_135_449">
<rect width="200" height="200" fill="white"/>
</clipPath>
</defs>
</svg>
