<svg width="156" height="137" viewBox="0 0 156 137" fill="none" xmlns="http://www.w3.org/2000/svg">
<g clip-path="url(#clip0_78_593)">
<path d="M78.0001 82.2245C85.6792 82.2245 91.9044 76.0798 91.9044 68.5C91.9044 60.9202 85.6792 54.7756 78.0001 54.7756C70.3209 54.7756 64.0957 60.9202 64.0957 68.5C64.0957 76.0798 70.3209 82.2245 78.0001 82.2245Z" fill="#61DAFB"/>
<path fill-rule="evenodd" clip-rule="evenodd" d="M11.4322 59.9363C8.05861 62.9423 6.64136 65.8416 6.64136 68.5C6.64136 71.1584 8.05861 74.0577 11.4322 77.0637C14.8055 80.0694 19.8692 82.9233 26.403 85.3858C39.4483 90.3022 57.6897 93.4104 78.0001 93.4104C98.3104 93.4104 116.552 90.3022 129.597 85.3858C136.131 82.9233 141.195 80.0694 144.568 77.0637C147.941 74.0577 149.359 71.1584 149.359 68.5C149.359 65.8416 147.941 62.9423 144.568 59.9363C141.195 56.9305 136.131 54.0767 129.597 51.6142C116.552 46.6977 98.3104 43.5895 78.0001 43.5895C57.6897 43.5895 39.4483 46.6977 26.403 51.6142C19.8692 54.0767 14.8055 56.9305 11.4322 59.9363ZM24.0845 45.6204C38.0422 40.36 57.1052 37.1736 78.0001 37.1736C98.8949 37.1736 117.958 40.36 131.916 45.6204C138.883 48.2463 144.746 51.4515 148.923 55.1738C153.101 58.8958 155.859 63.3937 155.859 68.5C155.859 73.6063 153.101 78.1041 148.923 81.8262C144.746 85.5485 138.883 88.7536 131.916 91.3796C117.958 96.64 98.8949 99.8263 78.0001 99.8263C57.1052 99.8263 38.0422 96.64 24.0845 91.3796C17.1168 88.7536 11.2543 85.5485 7.07672 81.8262C2.89953 78.1041 0.141357 73.6063 0.141357 68.5C0.141357 63.3937 2.89953 58.8958 7.07672 55.1738C11.2543 51.4515 17.1168 48.2463 24.0845 45.6204Z" fill="#61DAFB"/>
<path fill-rule="evenodd" clip-rule="evenodd" d="M52.2297 7.3146C47.9055 5.93377 44.6531 6.17192 42.3207 7.50112C39.9883 8.83031 38.1531 11.4915 37.2025 15.8783C36.252 20.2647 36.2799 26.0202 37.3863 32.8367C39.5953 46.4463 45.989 63.5935 56.1442 80.9552C66.2993 98.3169 78.1471 112.356 88.9833 121.049C94.4107 125.403 99.4465 128.305 103.77 129.685C108.095 131.066 111.347 130.828 113.679 129.499C116.012 128.17 117.847 125.509 118.798 121.122C119.748 116.735 119.72 110.98 118.614 104.163C116.405 90.5537 110.011 73.4065 99.8558 56.0448C89.7007 38.6831 77.8529 24.644 67.0167 15.9509C61.5893 11.5969 56.5535 8.69528 52.2297 7.3146ZM71.1163 10.972C82.7105 20.2732 95.0376 34.9754 105.485 52.8368C115.932 70.6982 122.668 88.5868 125.032 103.148C126.212 110.417 126.331 117.031 125.154 122.464C123.977 127.895 121.409 132.502 116.929 135.055C112.449 137.608 107.124 137.5 101.77 135.79C96.4149 134.08 90.6716 130.671 84.8837 126.028C73.2895 116.727 60.9624 102.025 50.515 84.1632C40.0675 66.3018 33.3317 48.4132 30.9681 33.8516C29.7883 26.5825 29.6691 19.9686 30.8463 14.5364C32.0233 9.10459 34.5905 4.49793 39.0707 1.94478C43.5508 -0.608366 48.8762 -0.499538 54.2304 1.21019C59.5851 2.92005 65.3284 6.32887 71.1163 10.972Z" fill="#61DAFB"/>
<path fill-rule="evenodd" clip-rule="evenodd" d="M118.798 15.8783C117.847 11.4915 116.012 8.83033 113.679 7.50114C111.347 6.17195 108.095 5.93379 103.77 7.31462C99.4466 8.6953 94.4108 11.5969 88.9834 15.9509C78.1472 24.6441 66.2994 38.6831 56.1442 56.0448C45.9891 73.4065 39.5954 90.5537 37.3864 104.163C36.28 110.98 36.2521 116.735 37.2026 121.122C38.1532 125.509 39.9883 128.17 42.3207 129.499C44.6531 130.828 47.9056 131.066 52.2298 129.685C56.5536 128.305 61.5894 125.403 67.0168 121.049C77.853 112.356 89.7007 98.3169 99.8559 80.9552C110.011 63.5935 116.405 46.4463 118.614 32.8367C119.72 26.0202 119.748 20.2647 118.798 15.8783ZM125.032 33.8517C122.668 48.4132 115.933 66.3018 105.485 84.1632C95.0376 102.025 82.7106 116.727 71.1163 126.028C65.3285 130.671 59.5852 134.08 54.2305 135.79C48.8763 137.5 43.5509 137.608 39.0707 135.055C34.5906 132.502 32.0234 127.895 30.8463 122.464C29.6692 117.031 29.7883 110.417 30.9682 103.148C33.3318 88.5868 40.0676 70.6982 50.5151 52.8368C60.9625 34.9755 73.2896 20.2732 84.8838 10.972C90.6716 6.32889 96.415 2.92008 101.77 1.21021C107.124 -0.499516 112.449 -0.608344 116.929 1.94481C121.41 4.49795 123.977 9.10462 125.154 14.5364C126.331 19.9686 126.212 26.5825 125.032 33.8517Z" fill="#61DAFB"/>
</g>
<defs>
<clipPath id="clip0_78_593">
<rect width="156" height="137" fill="white"/>
</clipPath>
</defs>
</svg>
